<mxfile host="drawio-plugin" modified="2023-06-01T02:15:06.629Z" agent="5.0 (Windows NT 6.2; Win64; x64) AppleWebKit/537.36 (KHTML, like Gecko) Chrome/104.0.5112.102 Safari/537.36" etag="tYnDoQLOdzspbV-SEPDa" version="20.5.3" type="embed"><diagram name="第 1 页" id="DQR2QDezXOJLgqNK3TPN"><mxGraphModel dx="612" dy="565" grid="1" gridSize="10" guides="1" tooltips="1" connect="1" arrows="1" fold="1" page="1" pageScale="1" pageWidth="827" pageHeight="1169" math="0" shadow="0"><root><mxCell id="0"/><mxCell id="1" parent="0"/><mxCell id="11" style="edgeStyle=orthogonalEdgeStyle;rounded=0;orthogonalLoop=1;jettySize=auto;html=1;" edge="1" parent="1" source="4rC50PGCv7jx4eLZKL7i-24" target="2"><mxGeometry relative="1" as="geometry"/></mxCell><mxCell id="4rC50PGCv7jx4eLZKL7i-24" value="任务" style="rounded=0;whiteSpace=wrap;html=1;" parent="1" vertex="1"><mxGeometry x="70" y="40" width="120" height="60" as="geometry"/></mxCell><mxCell id="10" style="edgeStyle=orthogonalEdgeStyle;rounded=0;orthogonalLoop=1;jettySize=auto;html=1;" edge="1" parent="1" source="4rC50PGCv7jx4eLZKL7i-26" target="2"><mxGeometry relative="1" as="geometry"/></mxCell><mxCell id="4rC50PGCv7jx4eLZKL7i-26" value="任务" style="rounded=0;whiteSpace=wrap;html=1;" parent="1" vertex="1"><mxGeometry x="230" y="40" width="120" height="60" as="geometry"/></mxCell><mxCell id="12" style="edgeStyle=orthogonalEdgeStyle;rounded=0;orthogonalLoop=1;jettySize=auto;html=1;" edge="1" parent="1" source="4rC50PGCv7jx4eLZKL7i-28" target="2"><mxGeometry relative="1" as="geometry"/></mxCell><mxCell id="4rC50PGCv7jx4eLZKL7i-28" value="任务" style="rounded=0;whiteSpace=wrap;html=1;" parent="1" vertex="1"><mxGeometry x="390" y="40" width="120" height="60" as="geometry"/></mxCell><mxCell id="9" value="上一步执行结果注入下一次执行" style="edgeStyle=orthogonalEdgeStyle;rounded=0;orthogonalLoop=1;jettySize=auto;html=1;" edge="1" parent="1" source="4rC50PGCv7jx4eLZKL7i-40" target="4rC50PGCv7jx4eLZKL7i-28"><mxGeometry relative="1" as="geometry"><Array as="points"><mxPoint x="550" y="305"/><mxPoint x="550" y="70"/></Array></mxGeometry></mxCell><mxCell id="4rC50PGCv7jx4eLZKL7i-40" value="监听（查看任务是否有下一步）" style="rounded=0;whiteSpace=wrap;html=1;" parent="1" vertex="1"><mxGeometry x="570" y="40" width="50" height="590" as="geometry"/></mxCell><mxCell id="14" style="edgeStyle=orthogonalEdgeStyle;rounded=0;orthogonalLoop=1;jettySize=auto;html=1;" edge="1" parent="1" source="4rC50PGCv7jx4eLZKL7i-41" target="4rC50PGCv7jx4eLZKL7i-40"><mxGeometry relative="1" as="geometry"/></mxCell><mxCell id="4rC50PGCv7jx4eLZKL7i-41" value="执行结果" style="rounded=0;whiteSpace=wrap;html=1;" parent="1" vertex="1"><mxGeometry x="65" y="350" width="450" height="60" as="geometry"/></mxCell><mxCell id="15" style="edgeStyle=orthogonalEdgeStyle;rounded=0;orthogonalLoop=1;jettySize=auto;html=1;entryX=1;entryY=0.5;entryDx=0;entryDy=0;" edge="1" parent="1" source="4rC50PGCv7jx4eLZKL7i-42" target="4rC50PGCv7jx4eLZKL7i-40"><mxGeometry relative="1" as="geometry"/></mxCell><mxCell id="4rC50PGCv7jx4eLZKL7i-42" value="全局配置" style="rounded=0;whiteSpace=wrap;html=1;" parent="1" vertex="1"><mxGeometry x="660" y="40" width="50" height="590" as="geometry"/></mxCell><mxCell id="4rC50PGCv7jx4eLZKL7i-54" style="edgeStyle=orthogonalEdgeStyle;rounded=0;orthogonalLoop=1;jettySize=auto;html=1;entryX=0;entryY=0.25;entryDx=0;entryDy=0;" parent="1" source="4rC50PGCv7jx4eLZKL7i-46" target="4rC50PGCv7jx4eLZKL7i-47" edge="1"><mxGeometry relative="1" as="geometry"/></mxCell><mxCell id="4rC50PGCv7jx4eLZKL7i-55" style="edgeStyle=orthogonalEdgeStyle;rounded=0;orthogonalLoop=1;jettySize=auto;html=1;" parent="1" source="4rC50PGCv7jx4eLZKL7i-46" target="4rC50PGCv7jx4eLZKL7i-49" edge="1"><mxGeometry relative="1" as="geometry"/></mxCell><mxCell id="4rC50PGCv7jx4eLZKL7i-56" style="edgeStyle=orthogonalEdgeStyle;rounded=0;orthogonalLoop=1;jettySize=auto;html=1;entryX=0;entryY=0.75;entryDx=0;entryDy=0;" parent="1" source="4rC50PGCv7jx4eLZKL7i-46" target="4rC50PGCv7jx4eLZKL7i-53" edge="1"><mxGeometry relative="1" as="geometry"/></mxCell><mxCell id="4rC50PGCv7jx4eLZKL7i-46" value="任务" style="rounded=0;whiteSpace=wrap;html=1;" parent="1" vertex="1"><mxGeometry x="65" y="870" width="120" height="60" as="geometry"/></mxCell><mxCell id="4rC50PGCv7jx4eLZKL7i-47" value="需要执行的代理对象" style="whiteSpace=wrap;html=1;rounded=0;" parent="1" vertex="1"><mxGeometry x="280" y="730" width="120" height="60" as="geometry"/></mxCell><mxCell id="4rC50PGCv7jx4eLZKL7i-49" value="任务配置" style="whiteSpace=wrap;html=1;rounded=0;" parent="1" vertex="1"><mxGeometry x="280" y="870" width="120" height="60" as="geometry"/></mxCell><mxCell id="4rC50PGCv7jx4eLZKL7i-57" style="edgeStyle=orthogonalEdgeStyle;rounded=0;orthogonalLoop=1;jettySize=auto;html=1;" parent="1" source="4rC50PGCv7jx4eLZKL7i-53" target="4rC50PGCv7jx4eLZKL7i-40" edge="1"><mxGeometry relative="1" as="geometry"><Array as="points"><mxPoint x="595" y="1040"/></Array></mxGeometry></mxCell><mxCell id="4rC50PGCv7jx4eLZKL7i-53" value="结果处理" style="whiteSpace=wrap;html=1;rounded=0;" parent="1" vertex="1"><mxGeometry x="280" y="1000" width="120" height="60" as="geometry"/></mxCell><mxCell id="4rC50PGCv7jx4eLZKL7i-58" value="任务状态" style="rounded=0;whiteSpace=wrap;html=1;" parent="1" vertex="1"><mxGeometry x="535" y="780" width="120" height="60" as="geometry"/></mxCell><mxCell id="13" style="edgeStyle=orthogonalEdgeStyle;rounded=0;orthogonalLoop=1;jettySize=auto;html=1;" edge="1" parent="1" source="2" target="4rC50PGCv7jx4eLZKL7i-41"><mxGeometry relative="1" as="geometry"/></mxCell><mxCell id="2" value="执行器" style="rounded=0;whiteSpace=wrap;html=1;" vertex="1" parent="1"><mxGeometry x="65" y="180" width="450" height="60" as="geometry"/></mxCell></root></mxGraphModel></diagram></mxfile>